<svg width="24" height="24" viewBox="0 0 24 24" fill="none" xmlns="http://www.w3.org/2000/svg">
<path d="M20.5734 17.142C21.4785 15.6385 21.9998 13.879 22 11.9999C22 9.74658 21.2681 7.61879 19.884 5.84772C19.6663 5.56935 19.2641 5.52013 18.9858 5.73748C18.7074 5.95518 18.6578 6.3573 18.8755 6.63567C20.0819 8.1797 20.7198 10.0347 20.7198 11.9999C20.7198 13.3951 20.3899 14.7145 19.8051 15.8851C17.7539 13.9909 17.9971 11.8389 18.2748 9.37774C18.4668 7.67875 18.6651 5.9219 18.0647 4.1872C18.0217 4.0623 17.9409 3.95387 17.8335 3.87696C16.1268 2.64903 14.1092 1.99976 11.9998 1.99976C8.47706 1.99976 5.28017 3.79926 3.4484 6.81314C3.39638 6.89883 3.36519 6.99555 3.35736 7.09549C3.34953 7.19544 3.36528 7.29583 3.40332 7.38858C4.24292 9.43528 5.93535 10.955 7.57227 12.4252C10.4051 14.9696 12.4739 16.8284 9.72901 20.4195C6.01863 19.4176 3.28023 16.0229 3.28023 11.9995C3.28023 11.0785 3.4227 10.1716 3.70454 9.30426C3.81337 8.968 3.62966 8.60713 3.2934 8.49791C2.95749 8.38873 2.59627 8.57315 2.48705 8.90906C2.16395 9.90432 2 10.9443 2 11.9999C2.00004 17.5142 6.48583 22.0003 11.9998 22.0003C15.583 22.0003 18.7313 20.1056 20.4974 17.2657C20.4996 17.2629 20.502 17.2605 20.5041 17.2577C20.5312 17.2217 20.5544 17.1829 20.5734 17.142ZM12.0001 20.7201C11.703 20.7201 11.4093 20.7051 11.1196 20.6759C13.9648 16.4465 11.033 13.8137 8.4271 11.4733C6.98362 10.1768 5.49366 8.83866 4.71816 7.19963C6.33985 4.7387 9.0379 3.2796 11.9994 3.2803C13.7702 3.2803 15.4657 3.80411 16.9168 4.79796C17.3449 6.20124 17.1785 7.67629 17.0024 9.23418C16.7162 11.7703 16.3941 14.6271 19.1373 17.0038C17.5584 19.2498 14.948 20.7203 12.0001 20.7201Z" fill="#010A04"/>
</svg>
