<svg width="24" height="24" viewBox="0 0 24 24" fill="none" xmlns="http://www.w3.org/2000/svg">
<path d="M6.59961 11.923C11.6722 2.46869 17.9886 2.35967 20.5127 3.48695C21.64 6.01105 21.531 12.3274 12.0767 17.4C11.9786 16.8364 11.4334 15.3599 10.0365 13.9631C8.63973 12.5663 7.16325 12.021 6.59961 11.923Z" stroke="#067429" stroke-width="1.5" stroke-linecap="round" stroke-linejoin="round"/>
<path d="M13.3496 16.95C15.1881 17.85 15.3844 19.4638 15.6391 21C15.6391 21 19.4897 18.1535 17.0266 14.25" stroke="#067429" stroke-width="1.5" stroke-linecap="round" stroke-linejoin="round"/>
<path d="M7.04996 10.7269C6.14996 8.88844 4.53615 8.69215 3 8.43746C3 8.43746 5.8465 4.58682 9.74997 7.04993" stroke="#067429" stroke-width="1.5" stroke-linecap="round" stroke-linejoin="round"/>
<path d="M6.01808 14.9115C5.50625 15.4233 4.63613 16.9076 5.25033 18.7503C7.09293 19.3645 8.57725 18.4943 9.08909 17.9825" stroke="#067429" stroke-width="1.5" stroke-linecap="round" stroke-linejoin="round"/>
<path d="M17.3008 8.4502C17.3008 7.4837 16.5173 6.7002 15.5508 6.7002C14.5843 6.7002 13.8008 7.4837 13.8008 8.4502C13.8008 9.41669 14.5843 10.2002 15.5508 10.2002C16.5173 10.2002 17.3008 9.41669 17.3008 8.4502Z" stroke="#067429" stroke-width="1.5"/>
</svg>
