<svg width="200" height="39" viewBox="0 0 200 39" fill="none" xmlns="http://www.w3.org/2000/svg">
<path d="M0 3.746C5.78775 3.73528 11.5755 3.7268 17.3632 3.72181C18.0476 3.72122 18.732 3.72061 19.4164 3.71998C19.5526 3.71985 19.6888 3.71973 19.8292 3.7196C22.0308 3.71755 24.2324 3.71381 26.4341 3.70945C28.6956 3.70501 30.9572 3.70239 33.2188 3.70143C34.6126 3.70078 36.0064 3.69874 37.4003 3.69488C38.358 3.69236 39.3157 3.69162 40.2735 3.69224C40.8248 3.69254 41.3761 3.6921 41.9275 3.68953C47.7738 3.66636 47.7738 3.66636 49.807 4.79207C49.9102 4.84675 50.0134 4.90143 50.1197 4.95776C51.9312 5.95768 53.1996 7.3403 53.8137 9.33164C53.8789 9.57435 53.9417 9.81775 54.0012 10.0619C54.0283 10.1593 54.0553 10.2568 54.0832 10.3572C54.575 12.5353 54.1335 14.8983 53.0538 16.812C52.3925 17.7975 51.505 18.412 50.5275 19.0621C50.9853 19.3815 50.9853 19.3815 51.4465 19.6005C53.3071 20.5309 54.6991 21.7079 55.3987 23.7096C55.72 24.8111 55.8105 25.8227 55.7973 26.9669C55.7991 27.1265 55.801 27.2862 55.8029 27.4507C55.7939 29.7755 54.8732 31.7224 53.2728 33.3969C52.3024 34.2973 51.2075 34.7694 49.9748 35.2071C49.8693 35.2461 49.7638 35.285 49.655 35.3251C47.058 36.1855 44.1461 36.0001 41.452 35.988C41.1006 35.9875 40.7492 35.9872 40.3978 35.987C39.1098 35.9854 37.8217 35.981 36.5337 35.9769C33.6483 35.9704 30.7629 35.9639 27.7901 35.9572C27.7901 28.6623 27.7901 21.3674 27.7901 13.8515C29.8222 13.8515 31.8544 13.8515 33.9481 13.8515C33.9481 14.8415 33.9481 15.8315 33.9481 16.8515C35.2179 16.838 36.4876 16.8231 37.7573 16.8061C38.3471 16.7983 38.9368 16.791 39.5265 16.7849C40.0968 16.779 40.6671 16.7717 41.2373 16.7634C41.4537 16.7605 41.6701 16.7581 41.8865 16.7563C44.8051 16.739 44.8051 16.739 47.2807 15.3614C47.9721 14.2274 47.9707 13.0886 47.8432 11.7988C47.6301 11.0837 47.2991 10.6953 46.6774 10.2907C45.6216 9.73129 44.7346 9.56923 43.5412 9.56324C43.4277 9.56246 43.3142 9.56168 43.1973 9.56088C42.8179 9.55846 42.4385 9.55713 42.059 9.5558C41.7867 9.55429 41.5143 9.55271 41.242 9.55106C40.5031 9.5468 39.7643 9.54348 39.0254 9.54033C38.2531 9.53687 37.4807 9.53255 36.7084 9.52832C35.2461 9.52044 33.7838 9.51334 32.3215 9.50652C30.3453 9.49727 28.3691 9.4868 26.3929 9.47641C23.2796 9.46006 20.1663 9.44532 17.053 9.43032C17.053 18.1842 17.053 26.938 17.053 35.9572C15.0209 35.9572 12.9887 35.9572 10.895 35.9572C10.895 27.2033 10.895 18.4494 10.895 9.43032C7.29964 9.43032 3.70429 9.43032 0 9.43032C0 7.5545 0 5.67867 0 3.746Z" fill="white"/>
<path d="M57.3174 2.95703C60.548 2.95703 63.7786 2.95703 67.1071 2.95703C67.1071 13.8472 67.1071 24.7375 67.1071 35.9577C65.0749 35.9577 63.0428 35.9577 60.949 35.9577C60.949 26.9433 60.949 17.9289 60.949 8.64135C59.7506 8.64135 58.5521 8.64135 57.3174 8.64135C57.3174 6.76553 57.3174 4.8897 57.3174 2.95703Z" fill="white"/>
<path d="M83.9199 1.50914C84.0423 1.50862 84.1647 1.50809 84.2908 1.50755C84.5481 1.50676 84.8054 1.50638 85.0627 1.50641C85.4489 1.50606 85.8351 1.50319 86.2214 1.5002C90.0476 1.48654 93.7751 2.16625 96.659 4.85769C98.7747 6.97969 99.468 10.1796 99.7917 13.0622C99.814 13.2598 99.814 13.2598 99.8368 13.4613C99.9986 15.1819 99.9847 16.9104 99.9876 18.637C99.9891 19.1833 99.994 19.7296 99.999 20.2759C100.02 24.7617 99.8041 30.0164 96.4759 33.431C92.7096 36.6879 87.1599 36.8895 82.434 36.5564C79.2909 36.2443 76.2803 35.2359 74.0691 32.8926C71.0799 29.1951 71.1304 24.3061 71.1504 19.793C71.1531 19.1759 71.1515 18.5588 71.1487 17.9417C71.1318 13.4291 71.18 8.17009 74.5058 4.67204C77.1036 2.41079 80.5321 1.51439 83.9199 1.50914Z" fill="white"/>
<path d="M91.13 8.40925C92.7118 9.70052 93.362 11.4586 93.6007 13.4609C93.6697 14.2826 93.6627 15.1069 93.6656 15.931C93.6665 16.1316 93.6674 16.3323 93.6683 16.539C93.6698 16.9635 93.6709 17.3881 93.6714 17.8126C93.6721 18.2408 93.6743 18.669 93.6779 19.0972C93.7099 23.1913 93.7099 23.1913 93.4263 25.2093C93.4082 25.3383 93.3901 25.4672 93.3714 25.6001C93.127 27.1048 92.5172 28.7043 91.2428 29.6262C88.466 31.2654 84.8691 31.3112 81.7918 30.5754C80.3813 30.1462 79.258 29.4164 78.5012 28.12C77.504 26.0955 77.5017 24.0604 77.4958 21.8478C77.4954 21.7336 77.4949 21.6193 77.4945 21.5016C77.4921 20.8971 77.4906 20.2925 77.49 19.688C77.4891 19.0705 77.4853 18.453 77.4808 17.8356C77.4778 17.3544 77.477 16.8732 77.4768 16.3919C77.4763 16.1646 77.4751 15.9373 77.473 15.7099C77.4534 13.4356 77.6357 10.6324 79.2981 8.8922C82.1306 6.37511 88.0697 6.22416 91.13 8.40925Z" fill="#067429"/>
<path d="M33.9478 22.2206C36.7815 22.1953 36.7815 22.1953 38.001 22.1898C38.8291 22.186 39.6572 22.1816 40.4852 22.173C41.1538 22.1661 41.8223 22.1623 42.4909 22.1607C42.7443 22.1596 42.9978 22.1573 43.2513 22.1539C45.1452 22.1292 46.9569 22.2041 48.4941 23.4542C49.3181 24.2781 49.5993 24.9884 49.6389 26.1483C49.5994 27.3647 49.4375 28.286 48.5336 29.1484C47.8834 29.6657 47.2254 29.928 46.4217 30.1155C46.3083 30.1429 46.195 30.1702 46.0781 30.1984C45.5357 30.2897 45.0202 30.2923 44.47 30.2914C44.3559 30.2914 44.2418 30.2914 44.1243 30.2914C43.7492 30.2913 43.3742 30.2901 42.9992 30.2888C42.7383 30.2886 42.4775 30.2883 42.2166 30.2882C41.5316 30.2876 40.8466 30.286 40.1615 30.2843C39.3388 30.2824 38.5161 30.2816 37.6934 30.2807C36.4448 30.2792 35.1963 30.2762 33.9478 30.2734C33.9478 27.616 33.9478 24.9586 33.9478 22.2206Z" fill="#067429"/>
</svg>
