<svg width="18" height="18" viewBox="0 0 18 18" fill="none" xmlns="http://www.w3.org/2000/svg">
<g clip-path="url(#clip0_454_2879)">
<path d="M9.375 16.5H4.94315C3.78412 16.5 2.86223 15.936 2.0345 15.1474C0.340023 13.5331 3.1221 12.243 4.18318 11.6112C5.87025 10.6066 7.86488 10.2832 9.75 10.6409" stroke="white" stroke-width="1.2" stroke-linecap="round" stroke-linejoin="round"/>
<path d="M11.625 4.875C11.625 6.73896 10.114 8.25 8.25 8.25C6.38604 8.25 4.875 6.73896 4.875 4.875C4.875 3.01104 6.38604 1.5 8.25 1.5C10.114 1.5 11.625 3.01104 11.625 4.875Z" stroke="white" stroke-width="1.2"/>
<path d="M14.0183 10.9333L14.5462 11.9979C14.6182 12.1461 14.8102 12.2882 14.9722 12.3154L15.9291 12.4757C16.541 12.5786 16.685 13.0262 16.244 13.4677L15.5001 14.2178C15.3741 14.3448 15.3051 14.5898 15.3441 14.7652L15.5571 15.6937C15.7251 16.4287 15.3381 16.713 14.6932 16.3289L13.7963 15.7936C13.6343 15.6968 13.3674 15.6968 13.2024 15.7936L12.3055 16.3289C11.6636 16.713 11.2736 16.4257 11.4416 15.6937L11.6546 14.7652C11.6935 14.5898 11.6246 14.3448 11.4986 14.2178L10.7547 13.4677C10.3167 13.0262 10.4577 12.5786 11.0696 12.4757L12.0265 12.3154C12.1855 12.2882 12.3775 12.1461 12.4495 11.9979L12.9774 10.9333C13.2654 10.3556 13.7333 10.3556 14.0183 10.9333Z" stroke="white" stroke-width="1.2" stroke-linecap="round" stroke-linejoin="round"/>
</g>
<defs>
<clipPath id="clip0_454_2879">
<rect width="18" height="18" fill="white"/>
</clipPath>
</defs>
</svg>
