<svg width="17" height="17" viewBox="0 0 17 17" fill="none" xmlns="http://www.w3.org/2000/svg">
<path d="M14.875 16.1147H2.125C1.83458 16.1147 1.59375 15.8739 1.59375 15.5835C1.59375 15.2931 1.83458 15.0522 2.125 15.0522H14.875C15.1654 15.0522 15.4062 15.2931 15.4062 15.5835C15.4062 15.8739 15.1654 16.1147 14.875 16.1147Z" fill="white"/>
<path d="M3.96667 5.93604H2.83333C2.44375 5.93604 2.125 6.25479 2.125 6.64437V12.7502C2.125 13.1398 2.44375 13.4585 2.83333 13.4585H3.96667C4.35625 13.4585 4.675 13.1398 4.675 12.7502V6.64437C4.675 6.2477 4.35625 5.93604 3.96667 5.93604Z" fill="white"/>
<path d="M9.06676 3.67627H7.93343C7.54385 3.67627 7.2251 3.99502 7.2251 4.3846V12.75C7.2251 13.1396 7.54385 13.4584 7.93343 13.4584H9.06676C9.45635 13.4584 9.7751 13.1396 9.7751 12.75V4.3846C9.7751 3.99502 9.45635 3.67627 9.06676 3.67627Z" fill="white"/>
<path d="M14.1666 1.4165H13.0333C12.6437 1.4165 12.325 1.73525 12.325 2.12484V12.7498C12.325 13.1394 12.6437 13.4582 13.0333 13.4582H14.1666C14.5562 13.4582 14.875 13.1394 14.875 12.7498V2.12484C14.875 1.73525 14.5562 1.4165 14.1666 1.4165Z" fill="white"/>
</svg>
