<svg width="17" height="17" viewBox="0 0 17 17" fill="none" xmlns="http://www.w3.org/2000/svg">
<path d="M14.875 16.1146H2.125C1.83458 16.1146 1.59375 15.8737 1.59375 15.5833C1.59375 15.2929 1.83458 15.0521 2.125 15.0521H14.875C15.1654 15.0521 15.4062 15.2929 15.4062 15.5833C15.4062 15.8737 15.1654 16.1146 14.875 16.1146Z" fill="white"/>
<path d="M3.96667 5.93584H2.83333C2.44375 5.93584 2.125 6.25459 2.125 6.64417V12.75C2.125 13.1396 2.44375 13.4583 2.83333 13.4583H3.96667C4.35625 13.4583 4.675 13.1396 4.675 12.75V6.64417C4.675 6.2475 4.35625 5.93584 3.96667 5.93584Z" fill="white"/>
<path d="M9.06676 3.67625H7.93343C7.54385 3.67625 7.2251 3.995 7.2251 4.38459V12.75C7.2251 13.1396 7.54385 13.4583 7.93343 13.4583H9.06676C9.45635 13.4583 9.7751 13.1396 9.7751 12.75V4.38459C9.7751 3.995 9.45635 3.67625 9.06676 3.67625Z" fill="white"/>
<path d="M14.1669 1.41667H13.0335C12.6439 1.41667 12.3252 1.73542 12.3252 2.12501V12.75C12.3252 13.1396 12.6439 13.4583 13.0335 13.4583H14.1669C14.5564 13.4583 14.8752 13.1396 14.8752 12.75V2.12501C14.8752 1.73542 14.5564 1.41667 14.1669 1.41667Z" fill="white"/>
</svg>
