<svg width="17" height="17" viewBox="0 0 17 17" fill="none" xmlns="http://www.w3.org/2000/svg">
<path d="M7.96875 12.9271H6.375C5.59583 12.9271 4.95833 13.5646 4.95833 14.3437V14.5208H4.25C3.95958 14.5208 3.71875 14.7617 3.71875 15.0521C3.71875 15.3425 3.95958 15.5833 4.25 15.5833H12.75C13.0404 15.5833 13.2812 15.3425 13.2812 15.0521C13.2812 14.7617 13.0404 14.5208 12.75 14.5208H12.0417V14.3437C12.0417 13.5646 11.4042 12.9271 10.625 12.9271H9.03125V11.305C8.85417 11.3262 8.67708 11.3333 8.5 11.3333C8.32292 11.3333 8.14583 11.3262 7.96875 11.305V12.9271Z" fill="white"/>
<path d="M13.0902 8.24501C13.5577 8.06792 13.9686 7.77751 14.2944 7.45167C14.9532 6.72209 15.3852 5.85084 15.3852 4.83084C15.3852 3.81084 14.5848 3.01042 13.5648 3.01042H13.1681C12.7077 2.06834 11.7444 1.41667 10.6252 1.41667H6.37523C5.25607 1.41667 4.29273 2.06834 3.83232 3.01042H3.43565C2.41565 3.01042 1.61523 3.81084 1.61523 4.83084C1.61523 5.85084 2.04732 6.72209 2.70607 7.45167C3.0319 7.77751 3.44273 8.06792 3.91023 8.24501C4.6469 10.0583 6.41773 11.3333 8.50023 11.3333C10.5827 11.3333 12.3536 10.0583 13.0902 8.24501ZM10.5119 5.98542L10.0727 6.52376C10.0019 6.60167 9.95232 6.7575 9.9594 6.86376L10.0019 7.55792C10.0302 7.98292 9.72565 8.20251 9.32898 8.04667L8.6844 7.79167C8.58523 7.75626 8.41523 7.75626 8.31607 7.79167L7.67148 8.04667C7.27482 8.20251 6.97023 7.98292 6.99857 7.55792L7.04107 6.86376C7.04815 6.7575 6.99857 6.60167 6.92773 6.52376L6.48857 5.98542C6.21232 5.65959 6.33273 5.29834 6.74357 5.19209L7.41648 5.02209C7.52273 4.99376 7.65023 4.89459 7.7069 4.80251L8.08232 4.22167C8.31607 3.86042 8.6844 3.86042 8.91815 4.22167L9.29357 4.80251C9.35023 4.89459 9.47773 4.99376 9.58398 5.02209L10.2569 5.19209C10.6677 5.29834 10.7882 5.65959 10.5119 5.98542Z" fill="white"/>
</svg>
