<svg width="17" height="17" viewBox="0 0 17 17" fill="none" xmlns="http://www.w3.org/2000/svg">
<path d="M7.96875 12.9273H6.375C5.59583 12.9273 4.95833 13.5648 4.95833 14.3439V14.521H4.25C3.95958 14.521 3.71875 14.7618 3.71875 15.0523C3.71875 15.3427 3.95958 15.5835 4.25 15.5835H12.75C13.0404 15.5835 13.2812 15.3427 13.2812 15.0523C13.2812 14.7618 13.0404 14.521 12.75 14.521H12.0417V14.3439C12.0417 13.5648 11.4042 12.9273 10.625 12.9273H9.03125V11.3052C8.85417 11.3264 8.67708 11.3335 8.5 11.3335C8.32292 11.3335 8.14583 11.3264 7.96875 11.3052V12.9273Z" fill="white"/>
<path d="M13.0902 8.24484C13.5577 8.06775 13.9686 7.77734 14.2944 7.4515C14.9532 6.72192 15.3852 5.85067 15.3852 4.83067C15.3852 3.81067 14.5848 3.01025 13.5648 3.01025H13.1681C12.7077 2.06817 11.7444 1.4165 10.6252 1.4165H6.37523C5.25607 1.4165 4.29273 2.06817 3.83232 3.01025H3.43565C2.41565 3.01025 1.61523 3.81067 1.61523 4.83067C1.61523 5.85067 2.04732 6.72192 2.70607 7.4515C3.0319 7.77734 3.44273 8.06775 3.91023 8.24484C4.6469 10.0582 6.41773 11.3332 8.50023 11.3332C10.5827 11.3332 12.3536 10.0582 13.0902 8.24484ZM10.5119 5.98525L10.0727 6.52359C10.0019 6.6015 9.95232 6.75734 9.9594 6.86359L10.0019 7.55775C10.0302 7.98275 9.72565 8.20234 9.32898 8.0465L8.6844 7.7915C8.58523 7.75609 8.41523 7.75609 8.31607 7.7915L7.67148 8.0465C7.27482 8.20234 6.97023 7.98275 6.99857 7.55775L7.04107 6.86359C7.04815 6.75734 6.99857 6.6015 6.92773 6.52359L6.48857 5.98525C6.21232 5.65942 6.33273 5.29817 6.74357 5.19192L7.41648 5.02192C7.52273 4.99359 7.65023 4.89442 7.7069 4.80234L8.08232 4.2215C8.31607 3.86025 8.6844 3.86025 8.91815 4.2215L9.29357 4.80234C9.35023 4.89442 9.47773 4.99359 9.58398 5.02192L10.2569 5.19192C10.6677 5.29817 10.7882 5.65942 10.5119 5.98525Z" fill="white"/>
</svg>
