<svg width="17" height="17" viewBox="0 0 17 17" fill="none" xmlns="http://www.w3.org/2000/svg">
<path d="M8.50008 1.4165C4.59716 1.4165 1.41675 4.59692 1.41675 8.49984C1.41675 12.4028 4.59716 15.5832 8.50008 15.5832C12.403 15.5832 15.5834 12.4028 15.5834 8.49984C15.5834 4.59692 12.403 1.4165 8.50008 1.4165ZM7.96883 5.6665C7.96883 5.37609 8.20967 5.13525 8.50008 5.13525C8.7905 5.13525 9.03133 5.37609 9.03133 5.6665V9.20817C9.03133 9.49859 8.7905 9.73942 8.50008 9.73942C8.20967 9.73942 7.96883 9.49859 7.96883 9.20817V5.6665ZM9.15175 11.6023C9.11633 11.6944 9.06675 11.7653 9.003 11.8361C8.93217 11.8998 8.85425 11.9494 8.76925 11.9848C8.68425 12.0203 8.59216 12.0415 8.50008 12.0415C8.408 12.0415 8.31592 12.0203 8.23092 11.9848C8.14592 11.9494 8.068 11.8998 7.99717 11.8361C7.93341 11.7653 7.88383 11.6944 7.84841 11.6023C7.813 11.5173 7.79175 11.4253 7.79175 11.3332C7.79175 11.2411 7.813 11.149 7.84841 11.064C7.88383 10.979 7.93341 10.9011 7.99717 10.8303C8.068 10.7665 8.14592 10.7169 8.23092 10.6815C8.40092 10.6107 8.59925 10.6107 8.76925 10.6815C8.85425 10.7169 8.93217 10.7665 9.003 10.8303C9.06675 10.9011 9.11633 10.979 9.15175 11.064C9.18717 11.149 9.20842 11.2411 9.20842 11.3332C9.20842 11.4253 9.18717 11.5173 9.15175 11.6023Z" fill="white"/>
</svg>
