<svg width="17" height="17" viewBox="0 0 17 17" fill="none" xmlns="http://www.w3.org/2000/svg">
<path d="M8.49984 1.41667C4.59692 1.41667 1.4165 4.59709 1.4165 8.50001C1.4165 12.4029 4.59692 15.5833 8.49984 15.5833C12.4028 15.5833 15.5832 12.4029 15.5832 8.50001C15.5832 4.59709 12.4028 1.41667 8.49984 1.41667ZM7.96859 5.66667C7.96859 5.37626 8.20942 5.13542 8.49984 5.13542C8.79025 5.13542 9.03109 5.37626 9.03109 5.66667V9.20834C9.03109 9.49876 8.79025 9.73959 8.49984 9.73959C8.20942 9.73959 7.96859 9.49876 7.96859 9.20834V5.66667ZM9.1515 11.6025C9.11609 11.6946 9.0665 11.7654 9.00275 11.8363C8.93192 11.9 8.854 11.9496 8.769 11.985C8.684 12.0204 8.59192 12.0417 8.49984 12.0417C8.40775 12.0417 8.31567 12.0204 8.23067 11.985C8.14567 11.9496 8.06775 11.9 7.99692 11.8363C7.93317 11.7654 7.88359 11.6946 7.84817 11.6025C7.81275 11.5175 7.7915 11.4254 7.7915 11.3333C7.7915 11.2413 7.81275 11.1492 7.84817 11.0642C7.88359 10.9792 7.93317 10.9013 7.99692 10.8304C8.06775 10.7667 8.14567 10.7171 8.23067 10.6817C8.40067 10.6108 8.599 10.6108 8.769 10.6817C8.854 10.7171 8.93192 10.7667 9.00275 10.8304C9.0665 10.9013 9.11609 10.9792 9.1515 11.0642C9.18692 11.1492 9.20817 11.2413 9.20817 11.3333C9.20817 11.4254 9.18692 11.5175 9.1515 11.6025Z" fill="white"/>
</svg>
