<svg width="17" height="17" viewBox="0 0 17 17" fill="none" xmlns="http://www.w3.org/2000/svg">
<path d="M12.4172 5.50376C12.3677 5.49667 12.3181 5.49667 12.2685 5.50376C11.1706 5.46834 10.2993 4.56875 10.2993 3.46375C10.2993 2.3375 11.2131 1.41667 12.3464 1.41667C13.4726 1.41667 14.3935 2.33042 14.3935 3.46375C14.3864 4.56875 13.5152 5.46834 12.4172 5.50376Z" fill="white"/>
<path d="M14.7262 10.4125C13.9329 10.9437 12.8208 11.1421 11.7937 11.0075C12.0629 10.4267 12.2046 9.78208 12.2116 9.10208C12.2116 8.39375 12.0558 7.72083 11.7583 7.13291C12.8066 6.99125 13.9187 7.18958 14.7191 7.72083C15.8383 8.4575 15.8383 9.66875 14.7262 10.4125Z" fill="white"/>
<path d="M4.56145 5.50376C4.61104 5.49667 4.66062 5.49667 4.7102 5.50376C5.80812 5.46834 6.67937 4.56875 6.67937 3.46375C6.67937 2.33042 5.76562 1.41667 4.63229 1.41667C3.50604 1.41667 2.59229 2.33042 2.59229 3.46375C2.59229 4.56875 3.46354 5.46834 4.56145 5.50376Z" fill="white"/>
<path d="M4.63954 9.10208C4.63954 9.78916 4.78829 10.4408 5.05746 11.0287C4.05871 11.135 3.01746 10.9225 2.25246 10.4196C1.13329 9.67583 1.13329 8.46458 2.25246 7.72083C3.01038 7.21083 4.07996 7.00541 5.08579 7.11874C4.79538 7.71374 4.63954 8.38666 4.63954 9.10208Z" fill="white"/>
<path d="M8.5849 11.2413C8.52824 11.2342 8.46449 11.2342 8.40074 11.2413C7.0974 11.1988 6.05615 10.1292 6.05615 8.81167C6.06324 7.46583 7.14699 6.375 8.4999 6.375C9.84574 6.375 10.9366 7.46583 10.9366 8.81167C10.9295 10.1292 9.89532 11.1988 8.5849 11.2413Z" fill="white"/>
<path d="M6.28314 12.7075C5.21356 13.4229 5.21356 14.5987 6.28314 15.3071C7.50148 16.1217 9.49898 16.1217 10.7173 15.3071C11.7869 14.5917 11.7869 13.4158 10.7173 12.7075C9.50606 11.8929 7.50856 11.8929 6.28314 12.7075Z" fill="white"/>
</svg>
