<svg width="17" height="17" viewBox="0 0 17 17" fill="none" xmlns="http://www.w3.org/2000/svg">
<path d="M12.417 5.50359C12.3674 5.4965 12.3178 5.4965 12.2682 5.50359C11.1703 5.46817 10.2991 4.56859 10.2991 3.46359C10.2991 2.33734 11.2128 1.4165 12.3462 1.4165C13.4724 1.4165 14.3932 2.33025 14.3932 3.46359C14.3862 4.56859 13.5149 5.46817 12.417 5.50359Z" fill="white"/>
<path d="M14.7262 10.4123C13.9329 10.9435 12.8208 11.1419 11.7937 11.0073C12.0629 10.4265 12.2046 9.78188 12.2116 9.10188C12.2116 8.39355 12.0558 7.72063 11.7583 7.13271C12.8066 6.99105 13.9187 7.18938 14.7191 7.72063C15.8383 8.4573 15.8383 9.66855 14.7262 10.4123Z" fill="white"/>
<path d="M4.5617 5.50359C4.61128 5.4965 4.66086 5.4965 4.71045 5.50359C5.80836 5.46817 6.67961 4.56859 6.67961 3.46359C6.67961 2.33025 5.76586 1.4165 4.63253 1.4165C3.50628 1.4165 2.59253 2.33025 2.59253 3.46359C2.59253 4.56859 3.46378 5.46817 4.5617 5.50359Z" fill="white"/>
<path d="M4.63954 9.10201C4.63954 9.7891 4.78829 10.4408 5.05746 11.0287C4.05871 11.1349 3.01746 10.9224 2.25246 10.4195C1.13329 9.67576 1.13329 8.46451 2.25246 7.72076C3.01038 7.21076 4.07996 7.00535 5.08579 7.11868C4.79538 7.71368 4.63954 8.3866 4.63954 9.10201Z" fill="white"/>
<path d="M8.5849 11.2413C8.52824 11.2342 8.46449 11.2342 8.40074 11.2413C7.0974 11.1988 6.05615 10.1292 6.05615 8.81167C6.06324 7.46583 7.14699 6.375 8.4999 6.375C9.84574 6.375 10.9366 7.46583 10.9366 8.81167C10.9295 10.1292 9.89532 11.1988 8.5849 11.2413Z" fill="white"/>
<path d="M6.2829 12.7076C5.21332 13.423 5.21332 14.5989 6.2829 15.3072C7.50123 16.1218 9.49873 16.1218 10.7171 15.3072C11.7867 14.5918 11.7867 13.416 10.7171 12.7076C9.50582 11.893 7.50832 11.893 6.2829 12.7076Z" fill="white"/>
</svg>
