<svg width="17" height="17" viewBox="0 0 17 17" fill="none" xmlns="http://www.w3.org/2000/svg">
<path d="M1.41675 6.90609C1.12633 6.90609 0.885498 6.66525 0.885498 6.37484V4.604C0.885498 2.54984 2.55716 0.885254 4.60425 0.885254H6.37508C6.6655 0.885254 6.90633 1.12609 6.90633 1.4165C6.90633 1.70692 6.6655 1.94775 6.37508 1.94775H4.60425C3.138 1.94775 1.948 3.13775 1.948 4.604V6.37484C1.948 6.66525 1.70716 6.90609 1.41675 6.90609Z" fill="white"/>
<path d="M15.5833 6.90609C15.2929 6.90609 15.0521 6.66525 15.0521 6.37484V4.604C15.0521 3.13775 13.8621 1.94775 12.3958 1.94775H10.625C10.3346 1.94775 10.0938 1.70692 10.0938 1.4165C10.0938 1.12609 10.3346 0.885254 10.625 0.885254H12.3958C14.4429 0.885254 16.1146 2.54984 16.1146 4.604V6.37484C16.1146 6.66525 15.8738 6.90609 15.5833 6.90609Z" fill="white"/>
<path d="M12.3958 16.1147H11.3333C11.0428 16.1147 10.802 15.8739 10.802 15.5835C10.802 15.2931 11.0428 15.0522 11.3333 15.0522H12.3958C13.862 15.0522 15.052 13.8622 15.052 12.396V11.3335C15.052 11.0431 15.2928 10.8022 15.5833 10.8022C15.8737 10.8022 16.1145 11.0431 16.1145 11.3335V12.396C16.1145 14.4502 14.4428 16.1147 12.3958 16.1147Z" fill="white"/>
<path d="M6.37508 16.1146H4.60425C2.55716 16.1146 0.885498 14.45 0.885498 12.3958V10.625C0.885498 10.3346 1.12633 10.0938 1.41675 10.0938C1.70716 10.0938 1.948 10.3346 1.948 10.625V12.3958C1.948 13.8621 3.138 15.0521 4.60425 15.0521H6.37508C6.6655 15.0521 6.90633 15.2929 6.90633 15.5833C6.90633 15.8738 6.6655 16.1146 6.37508 16.1146Z" fill="white"/>
<path d="M6.375 3.71875H4.95833C4.15083 3.71875 3.71875 4.14375 3.71875 4.95833V6.375C3.71875 7.18958 4.15083 7.61458 4.95833 7.61458H6.375C7.1825 7.61458 7.61458 7.18958 7.61458 6.375V4.95833C7.61458 4.14375 7.1825 3.71875 6.375 3.71875Z" fill="white"/>
<path d="M12.0417 3.71875H10.6251C9.81758 3.71875 9.3855 4.14375 9.3855 4.95833V6.375C9.3855 7.18958 9.81758 7.61458 10.6251 7.61458H12.0417C12.8492 7.61458 13.2813 7.18958 13.2813 6.375V4.95833C13.2813 4.14375 12.8492 3.71875 12.0417 3.71875Z" fill="white"/>
<path d="M6.375 9.38525H4.95833C4.15083 9.38525 3.71875 9.81025 3.71875 10.6248V12.0415C3.71875 12.8561 4.15083 13.2811 4.95833 13.2811H6.375C7.1825 13.2811 7.61458 12.8561 7.61458 12.0415V10.6248C7.61458 9.81025 7.1825 9.38525 6.375 9.38525Z" fill="white"/>
<path d="M12.0417 9.38525H10.6251C9.81758 9.38525 9.3855 9.81025 9.3855 10.6248V12.0415C9.3855 12.8561 9.81758 13.2811 10.6251 13.2811H12.0417C12.8492 13.2811 13.2813 12.8561 13.2813 12.0415V10.6248C13.2813 9.81025 12.8492 9.38525 12.0417 9.38525Z" fill="white"/>
</svg>
