<svg width="17" height="17" viewBox="0 0 17 17" fill="none" xmlns="http://www.w3.org/2000/svg">
<path d="M1.4165 6.90626C1.12609 6.90626 0.885254 6.66542 0.885254 6.37501V4.60417C0.885254 2.55001 2.55692 0.885422 4.604 0.885422H6.37484C6.66525 0.885422 6.90609 1.12626 6.90609 1.41667C6.90609 1.70709 6.66525 1.94792 6.37484 1.94792H4.604C3.13775 1.94792 1.94775 3.13792 1.94775 4.60417V6.37501C1.94775 6.66542 1.70692 6.90626 1.4165 6.90626Z" fill="white"/>
<path d="M15.5833 6.90626C15.2929 6.90626 15.0521 6.66542 15.0521 6.37501V4.60417C15.0521 3.13792 13.8621 1.94792 12.3958 1.94792H10.625C10.3346 1.94792 10.0938 1.70709 10.0938 1.41667C10.0938 1.12626 10.3346 0.885422 10.625 0.885422H12.3958C14.4429 0.885422 16.1146 2.55001 16.1146 4.60417V6.37501C16.1146 6.66542 15.8738 6.90626 15.5833 6.90626Z" fill="white"/>
<path d="M12.396 16.1146H11.3335C11.0431 16.1146 10.8022 15.8737 10.8022 15.5833C10.8022 15.2929 11.0431 15.0521 11.3335 15.0521H12.396C13.8622 15.0521 15.0522 13.8621 15.0522 12.3958V11.3333C15.0522 11.0429 15.2931 10.8021 15.5835 10.8021C15.8739 10.8021 16.1147 11.0429 16.1147 11.3333V12.3958C16.1147 14.45 14.4431 16.1146 12.396 16.1146Z" fill="white"/>
<path d="M6.37484 16.1146H4.604C2.55692 16.1146 0.885254 14.45 0.885254 12.3958V10.625C0.885254 10.3346 1.12609 10.0938 1.4165 10.0938C1.70692 10.0938 1.94775 10.3346 1.94775 10.625V12.3958C1.94775 13.8621 3.13775 15.0521 4.604 15.0521H6.37484C6.66525 15.0521 6.90609 15.2929 6.90609 15.5833C6.90609 15.8738 6.66525 16.1146 6.37484 16.1146Z" fill="white"/>
<path d="M6.375 3.71875H4.95833C4.15083 3.71875 3.71875 4.14375 3.71875 4.95833V6.375C3.71875 7.18958 4.15083 7.61458 4.95833 7.61458H6.375C7.1825 7.61458 7.61458 7.18958 7.61458 6.375V4.95833C7.61458 4.14375 7.1825 3.71875 6.375 3.71875Z" fill="white"/>
<path d="M12.0415 3.71875H10.6248C9.81734 3.71875 9.38525 4.14375 9.38525 4.95833V6.375C9.38525 7.18958 9.81734 7.61458 10.6248 7.61458H12.0415C12.849 7.61458 13.2811 7.18958 13.2811 6.375V4.95833C13.2811 4.14375 12.849 3.71875 12.0415 3.71875Z" fill="white"/>
<path d="M6.375 9.38542H4.95833C4.15083 9.38542 3.71875 9.81042 3.71875 10.625V12.0417C3.71875 12.8563 4.15083 13.2813 4.95833 13.2813H6.375C7.1825 13.2813 7.61458 12.8563 7.61458 12.0417V10.625C7.61458 9.81042 7.1825 9.38542 6.375 9.38542Z" fill="white"/>
<path d="M12.0415 9.38542H10.6248C9.81734 9.38542 9.38525 9.81042 9.38525 10.625V12.0417C9.38525 12.8563 9.81734 13.2813 10.6248 13.2813H12.0415C12.849 13.2813 13.2811 12.8563 13.2811 12.0417V10.625C13.2811 9.81042 12.849 9.38542 12.0415 9.38542Z" fill="white"/>
</svg>
