<svg width="20" height="20" viewBox="0 0 20 20" fill="none" xmlns="http://www.w3.org/2000/svg">
<path d="M18.3346 8.12508C17.993 8.12508 17.7096 7.84175 17.7096 7.50008V5.83341C17.7096 3.68341 16.318 2.29175 14.168 2.29175H5.83464C3.68464 2.29175 2.29297 3.68341 2.29297 5.83341V7.50008C2.29297 7.84175 2.00964 8.12508 1.66797 8.12508C1.3263 8.12508 1.04297 7.84175 1.04297 7.50008V5.83341C1.04297 2.96675 2.96797 1.04175 5.83464 1.04175H14.168C17.0346 1.04175 18.9596 2.96675 18.9596 5.83341V7.50008C18.9596 7.84175 18.6763 8.12508 18.3346 8.12508Z" fill="white"/>
<path d="M14.168 18.9583H5.83464C2.96797 18.9583 1.04297 17.0333 1.04297 14.1667V12.5C1.04297 12.1583 1.3263 11.875 1.66797 11.875C2.00964 11.875 2.29297 12.1583 2.29297 12.5V14.1667C2.29297 16.3167 3.68464 17.7083 5.83464 17.7083H14.168C16.318 17.7083 17.7096 16.3167 17.7096 14.1667V12.5C17.7096 12.1583 17.993 11.875 18.3346 11.875C18.6763 11.875 18.9596 12.1583 18.9596 12.5V14.1667C18.9596 17.0333 17.0346 18.9583 14.168 18.9583Z" fill="white"/>
<path d="M18.3346 10.625H1.66797C1.3263 10.625 1.04297 10.3417 1.04297 10C1.04297 9.65833 1.3263 9.375 1.66797 9.375H18.3346C18.6763 9.375 18.9596 9.65833 18.9596 10C18.9596 10.3417 18.6763 10.625 18.3346 10.625Z" fill="white"/>
<path d="M13.7487 7.50008H6.2487C6.01536 7.50008 5.83203 7.31675 5.83203 7.08341V5.41675C5.83203 4.72508 6.39036 4.16675 7.08203 4.16675H12.9154C13.607 4.16675 14.1654 4.72508 14.1654 5.41675V7.08341C14.1654 7.31675 13.982 7.50008 13.7487 7.50008Z" fill="white"/>
<path d="M13.7487 12.5H6.2487C6.01536 12.5 5.83203 12.6833 5.83203 12.9167V14.5833C5.83203 15.275 6.39036 15.8333 7.08203 15.8333H12.9154C13.5987 15.8333 14.1654 15.275 14.1654 14.5833V12.9167C14.1654 12.6833 13.982 12.5 13.7487 12.5Z" fill="white"/>
</svg>
