<svg width="17" height="17" viewBox="0 0 17 17" fill="none" xmlns="http://www.w3.org/2000/svg">
<path d="M14.2373 6.53084C12.9553 6.53084 12.4311 5.62417 13.0686 4.51209C13.4369 3.86751 13.2173 3.04584 12.5728 2.67751L11.3473 1.97626C10.7878 1.64334 10.0653 1.84167 9.73234 2.40126L9.65442 2.53584C9.01692 3.64792 7.96859 3.64792 7.324 2.53584L7.24609 2.40126C6.92734 1.84167 6.20484 1.64334 5.64525 1.97626L4.41984 2.67751C3.77525 3.04584 3.55567 3.87459 3.924 4.51917C4.56859 5.62417 4.04442 6.53084 2.76234 6.53084C2.02567 6.53084 1.4165 7.13292 1.4165 7.87667V9.12334C1.4165 9.86001 2.01859 10.4692 2.76234 10.4692C4.04442 10.4692 4.56859 11.3758 3.924 12.4879C3.55567 13.1325 3.77525 13.9542 4.41984 14.3225L5.64525 15.0238C6.20484 15.3567 6.92734 15.1583 7.26025 14.5988L7.33817 14.4642C7.97567 13.3521 9.024 13.3521 9.66859 14.4642L9.7465 14.5988C10.0794 15.1583 10.8019 15.3567 11.3615 15.0238L12.5869 14.3225C13.2315 13.9542 13.4511 13.1254 13.0828 12.4879C12.4382 11.3758 12.9623 10.4692 14.2444 10.4692C14.9811 10.4692 15.5903 9.86709 15.5903 9.12334V7.87667C15.5832 7.14001 14.9811 6.53084 14.2373 6.53084ZM8.49984 10.8021C7.23192 10.8021 6.19775 9.76792 6.19775 8.50001C6.19775 7.23209 7.23192 6.19792 8.49984 6.19792C9.76775 6.19792 10.8019 7.23209 10.8019 8.50001C10.8019 9.76792 9.76775 10.8021 8.49984 10.8021Z" fill="white"/>
</svg>
