<svg width="17" height="17" viewBox="0 0 17 17" fill="none" xmlns="http://www.w3.org/2000/svg">
<path d="M14.2376 6.53069C12.9555 6.53069 12.4313 5.62402 13.0688 4.51194C13.4372 3.86735 13.2176 3.04569 12.573 2.67735L11.3476 1.9761C10.788 1.64319 10.0655 1.84152 9.73258 2.4011L9.65466 2.53569C9.01716 3.64777 7.96883 3.64777 7.32425 2.53569L7.24633 2.4011C6.92758 1.84152 6.20508 1.64319 5.6455 1.9761L4.42008 2.67735C3.7755 3.04569 3.55591 3.87444 3.92425 4.51902C4.56883 5.62402 4.04466 6.53069 2.76258 6.53069C2.02591 6.53069 1.41675 7.13277 1.41675 7.87652V9.12319C1.41675 9.85985 2.01883 10.469 2.76258 10.469C4.04466 10.469 4.56883 11.3757 3.92425 12.4878C3.55591 13.1324 3.7755 13.954 4.42008 14.3224L5.6455 15.0236C6.20508 15.3565 6.92758 15.1582 7.2605 14.5986L7.33841 14.464C7.97591 13.3519 9.02425 13.3519 9.66883 14.464L9.74675 14.5986C10.0797 15.1582 10.8022 15.3565 11.3617 15.0236L12.5872 14.3224C13.2317 13.954 13.4513 13.1253 13.083 12.4878C12.4384 11.3757 12.9626 10.469 14.2447 10.469C14.9813 10.469 15.5905 9.86694 15.5905 9.12319V7.87652C15.5834 7.13985 14.9813 6.53069 14.2376 6.53069ZM8.50008 10.8019C7.23216 10.8019 6.198 9.76777 6.198 8.49985C6.198 7.23194 7.23216 6.19777 8.50008 6.19777C9.768 6.19777 10.8022 7.23194 10.8022 8.49985C10.8022 9.76777 9.768 10.8019 8.50008 10.8019Z" fill="white"/>
</svg>
