<svg width="17" height="17" viewBox="0 0 17 17" fill="none" xmlns="http://www.w3.org/2000/svg">
<path d="M13.1326 2.91839L9.23673 1.45922C8.83298 1.31047 8.17423 1.31047 7.77048 1.45922L3.87465 2.91839C3.12382 3.20172 2.51465 4.08005 2.51465 4.88047V10.618C2.51465 11.1917 2.89007 11.9496 3.35048 12.2896L7.24631 15.2009C7.9334 15.718 9.05965 15.718 9.74673 15.2009L13.6426 12.2896C14.103 11.9426 14.4784 11.1917 14.4784 10.618V4.88047C14.4855 4.08005 13.8763 3.20172 13.1326 2.91839ZM10.9651 6.88505L7.91923 9.93089C7.81298 10.0371 7.6784 10.0867 7.54381 10.0867C7.40923 10.0867 7.27465 10.0371 7.1684 9.93089L6.03507 8.78338C5.82965 8.57797 5.82965 8.23797 6.03507 8.03255C6.24048 7.82714 6.58048 7.82714 6.7859 8.03255L7.5509 8.79755L10.2213 6.12713C10.4267 5.92172 10.7667 5.92172 10.9721 6.12713C11.1776 6.33255 11.1776 6.67964 10.9651 6.88505Z" fill="white"/>
</svg>
