<svg width="17" height="17" viewBox="0 0 17 17" fill="none" xmlns="http://www.w3.org/2000/svg">
<path d="M13.1326 2.91834L9.23673 1.45917C8.83298 1.31042 8.17423 1.31042 7.77048 1.45917L3.87465 2.91834C3.12382 3.20167 2.51465 4.08001 2.51465 4.88042V10.6179C2.51465 11.1917 2.89007 11.9496 3.35048 12.2896L7.24631 15.2008C7.9334 15.7179 9.05965 15.7179 9.74673 15.2008L13.6426 12.2896C14.103 11.9425 14.4784 11.1917 14.4784 10.6179V4.88042C14.4855 4.08001 13.8763 3.20167 13.1326 2.91834ZM10.9651 6.88501L7.91923 9.93084C7.81298 10.0371 7.6784 10.0867 7.54381 10.0867C7.40923 10.0867 7.27465 10.0371 7.1684 9.93084L6.03507 8.78334C5.82965 8.57792 5.82965 8.23792 6.03507 8.03251C6.24048 7.82709 6.58048 7.82709 6.7859 8.03251L7.5509 8.79751L10.2213 6.12709C10.4267 5.92167 10.7667 5.92167 10.9721 6.12709C11.1776 6.33251 11.1776 6.67959 10.9651 6.88501Z" fill="white"/>
</svg>
