<svg width="18" height="18" viewBox="0 0 18 18" fill="none" xmlns="http://www.w3.org/2000/svg">
<path d="M1.71729 5.83498V13.1325C1.71729 14.5575 2.72979 15.1425 3.95979 14.4375L5.72229 13.4325C6.10479 13.215 6.74229 13.1925 7.13979 13.395L11.0773 15.3675C11.4748 15.5625 12.1123 15.5475 12.4948 15.33L15.7423 13.47C16.1548 13.23 16.4998 12.645 16.4998 12.165V4.86748C16.4998 3.44248 15.4873 2.85748 14.2573 3.56248L12.4948 4.56748C12.1123 4.78498 11.4748 4.80748 11.0773 4.60498L7.13979 2.63998C6.74229 2.44498 6.10479 2.45998 5.72229 2.67748L2.47479 4.53748C2.05479 4.77748 1.71729 5.36248 1.71729 5.83498Z" stroke="#010A04" stroke-width="1.5" stroke-linecap="round" stroke-linejoin="round"/>
<path d="M6.41992 3V12.75" stroke="#010A04" stroke-width="1.5" stroke-linecap="round" stroke-linejoin="round"/>
<path d="M11.7974 4.96503V15" stroke="#010A04" stroke-width="1.5" stroke-linecap="round" stroke-linejoin="round"/>
</svg>
