<svg width="18" height="18" viewBox="0 0 18 18" fill="none" xmlns="http://www.w3.org/2000/svg">
<path d="M15.75 2.25H2.25C1.83579 2.25 1.5 2.58579 1.5 3V5.25C1.5 5.66421 1.83579 6 2.25 6H15.75C16.1642 6 16.5 5.66421 16.5 5.25V3C16.5 2.58579 16.1642 2.25 15.75 2.25Z" stroke="#010A04" stroke-width="1.2" stroke-linecap="round" stroke-linejoin="round"/>
<path d="M3 6V14.25C3 14.6478 3.15804 15.0294 3.43934 15.3107C3.72064 15.592 4.10218 15.75 4.5 15.75H6" stroke="#010A04" stroke-width="1.2" stroke-linecap="round" stroke-linejoin="round"/>
<path d="M15 6V14.25C15 14.6478 14.842 15.0294 14.5607 15.3107C14.2794 15.592 13.8978 15.75 13.5 15.75H12" stroke="#010A04" stroke-width="1.2" stroke-linecap="round" stroke-linejoin="round"/>
<path d="M6.75 11.25L9 9L11.25 11.25" stroke="#010A04" stroke-width="1.2" stroke-linecap="round" stroke-linejoin="round"/>
<path d="M9 9V15.75" stroke="#010A04" stroke-width="1.2" stroke-linecap="round" stroke-linejoin="round"/>
</svg>
