<svg width="11" height="11" viewBox="0 0 11 11" fill="none" xmlns="http://www.w3.org/2000/svg">
<g clip-path="url(#clip0_285_2148)">
<path d="M5.29925 1.49681C5.31903 1.46088 5.3481 1.43092 5.38341 1.41005C5.41872 1.38918 5.45898 1.37817 5.5 1.37817C5.54102 1.37817 5.58128 1.38918 5.61659 1.41005C5.65191 1.43092 5.68097 1.46088 5.70075 1.49681L7.05375 4.06531C7.08602 4.12479 7.13105 4.17638 7.18562 4.21639C7.24019 4.25639 7.30293 4.28382 7.36936 4.2967C7.43578 4.30959 7.50424 4.3076 7.56981 4.29089C7.63537 4.27418 7.69643 4.24316 7.74858 4.20006L9.70888 2.52073C9.74651 2.49012 9.79288 2.47224 9.84132 2.46967C9.88975 2.4671 9.93776 2.47996 9.97842 2.5064C10.0191 2.53285 10.0503 2.57152 10.0676 2.61684C10.0849 2.66216 10.0873 2.71179 10.0746 2.7586L8.77571 7.45469C8.7492 7.55078 8.69207 7.63562 8.613 7.69632C8.53393 7.75703 8.43723 7.79031 8.33754 7.7911H2.66292C2.56315 7.79041 2.46634 7.75718 2.38718 7.69646C2.30802 7.63575 2.25083 7.55086 2.22429 7.45469L0.925834 2.75906C0.913116 2.71225 0.915578 2.66261 0.932866 2.61729C0.950154 2.57197 0.981376 2.53331 1.02204 2.50686C1.0627 2.48042 1.11071 2.46755 1.15914 2.47013C1.20758 2.4727 1.25395 2.49058 1.29158 2.52119L3.25142 4.20052C3.30358 4.24362 3.36463 4.27464 3.4302 4.29135C3.49576 4.30806 3.56422 4.31005 3.63064 4.29716C3.69707 4.28428 3.75982 4.25685 3.81439 4.21684C3.86895 4.17684 3.91399 4.12524 3.94625 4.06577L5.29925 1.49681Z" stroke="currentColor" stroke-linecap="round" stroke-linejoin="round"/>
<path d="M2.29167 9.625H8.70834" stroke="currentColor" stroke-linecap="round" stroke-linejoin="round"/>
</g>
<defs>
<clipPath id="clip0_285_2148">
<rect width="11" height="11" fill="white"/>
</clipPath>
</defs>
</svg>
