<svg width="16" height="16" viewBox="0 0 16 16" fill="none" xmlns="http://www.w3.org/2000/svg">
<path d="M13.3334 6.66658C13.3334 9.99525 9.64075 13.4619 8.40075 14.5326C8.28523 14.6194 8.14461 14.6664 8.00008 14.6664C7.85555 14.6664 7.71493 14.6194 7.59941 14.5326C6.35941 13.4619 2.66675 9.99525 2.66675 6.66658C2.66675 5.2521 3.22865 3.89554 4.22885 2.89535C5.22904 1.89516 6.58559 1.33325 8.00008 1.33325C9.41457 1.33325 10.7711 1.89516 11.7713 2.89535C12.7715 3.89554 13.3334 5.2521 13.3334 6.66658Z" stroke="#6A6A6A" stroke-width="1.3" stroke-linecap="round" stroke-linejoin="round"/>
<path d="M8 8.66675C9.10457 8.66675 10 7.77132 10 6.66675C10 5.56218 9.10457 4.66675 8 4.66675C6.89543 4.66675 6 5.56218 6 6.66675C6 7.77132 6.89543 8.66675 8 8.66675Z" stroke="#6A6A6A" stroke-width="1.3" stroke-linecap="round" stroke-linejoin="round"/>
</svg>
