<svg width="18" height="18" viewBox="0 0 18 18" fill="none" xmlns="http://www.w3.org/2000/svg">
<g clip-path="url(#clip0_406_2064)">
<path d="M9.75 15.75H15.75" stroke="#010A04" stroke-width="1.5" stroke-linecap="round" stroke-linejoin="round"/>
<path d="M15.8805 5.10898C16.277 4.71255 16.4998 4.17483 16.4999 3.61412C16.4999 3.05341 16.2773 2.51564 15.8808 2.11911C15.4844 1.72257 14.9467 1.49977 14.386 1.49969C13.8253 1.49962 13.2875 1.7223 12.891 2.11873L2.88145 12.1305C2.70732 12.3041 2.57854 12.5179 2.50645 12.753L1.5157 16.017C1.49632 16.0818 1.49485 16.1507 1.51146 16.2164C1.52807 16.282 1.56214 16.3419 1.61005 16.3897C1.65796 16.4376 1.71792 16.4715 1.78357 16.488C1.84922 16.5045 1.91812 16.503 1.98295 16.4835L5.2477 15.4935C5.48258 15.422 5.69633 15.294 5.8702 15.1207L15.8805 5.10898Z" stroke="#010A04" stroke-width="1.5" stroke-linecap="round" stroke-linejoin="round"/>
</g>
<defs>
<clipPath id="clip0_406_2064">
<rect width="18" height="18" fill="white"/>
</clipPath>
</defs>
</svg>
