<svg width="16" height="16" viewBox="0 0 16 16" fill="none" xmlns="http://www.w3.org/2000/svg">
<path d="M8 13.3334H14" stroke="#067429" stroke-width="1.2" stroke-linecap="round" stroke-linejoin="round"/>
<path d="M10.9176 2.41461C11.183 2.14922 11.543 2.00012 11.9183 2.00012C12.2936 2.00012 12.6536 2.14922 12.919 2.41461C13.1844 2.68001 13.3335 3.03996 13.3335 3.41528C13.3335 3.7906 13.1844 4.15055 12.919 4.41595L4.91231 12.4233C4.75371 12.5819 4.55766 12.6979 4.34231 12.7606L2.42764 13.3193C2.37028 13.336 2.30947 13.337 2.25158 13.3222C2.1937 13.3074 2.14086 13.2772 2.09861 13.235C2.05635 13.1927 2.02624 13.1399 2.01141 13.082C1.99658 13.0241 1.99758 12.9633 2.01431 12.9059L2.57298 10.9913C2.63579 10.7762 2.75181 10.5804 2.91031 10.4219L10.9176 2.41461Z" stroke="#067429" stroke-width="1.2" stroke-linecap="round" stroke-linejoin="round"/>
</svg>
