<svg width="20" height="20" viewBox="0 0 20 20" fill="none" xmlns="http://www.w3.org/2000/svg">
<path d="M10 2.5H4.16667C3.72464 2.5 3.30072 2.67559 2.98816 2.98816C2.67559 3.30072 2.5 3.72464 2.5 4.16667V15.8333C2.5 16.2754 2.67559 16.6993 2.98816 17.0118C3.30072 17.3244 3.72464 17.5 4.16667 17.5H15.8333C16.2754 17.5 16.6993 17.3244 17.0118 17.0118C17.3244 16.6993 17.5 16.2754 17.5 15.8333V10" stroke="#010A04" stroke-width="1.5" stroke-linecap="round" stroke-linejoin="round"/>
<path d="M15.3127 2.18769C15.6443 1.85617 16.0939 1.66992 16.5627 1.66992C17.0316 1.66992 17.4812 1.85617 17.8127 2.18769C18.1443 2.51921 18.3305 2.96885 18.3305 3.43769C18.3305 3.90653 18.1443 4.35617 17.8127 4.68769L10.3019 12.1994C10.104 12.3971 9.85958 12.5418 9.59107 12.6202L7.19691 13.3202C7.1252 13.3411 7.04919 13.3424 6.97683 13.3238C6.90447 13.3053 6.83843 13.2676 6.78561 13.2148C6.7328 13.162 6.69515 13.096 6.67661 13.0236C6.65807 12.9512 6.65933 12.8752 6.68024 12.8035L7.38024 10.4094C7.45901 10.1411 7.60402 9.8969 7.80191 9.69936L15.3127 2.18769Z" stroke="#010A04" stroke-width="1.5" stroke-linecap="round" stroke-linejoin="round"/>
</svg>
